<mxfile host="app.diagrams.net" modified="2024-06-21T08:13:03.068Z" agent="Mozilla/5.0 (Windows NT 10.0; Win64; x64) AppleWebKit/537.36 (KHTML, like Gecko) Chrome/110.0.0.0 Safari/537.36" etag="lXqmbnV-oOhGzbB5-u-j" version="24.5.5" type="github">
  <diagram name="Page-1" id="4GBzzB2ue3xNTXYEmm02">
    <mxGraphModel dx="1065" dy="484" grid="1" gridSize="10" guides="1" tooltips="1" connect="1" arrows="1" fold="1" page="1" pageScale="1" pageWidth="827" pageHeight="1169" math="0" shadow="0">
      <root>
        <mxCell id="0" />
        <mxCell id="1" parent="0" />
        <mxCell id="fL6lvS7GN7arQnfJmLDX-31" value="" style="shape=table;startSize=0;container=1;collapsible=0;childLayout=tableLayout;fontSize=16;" vertex="1" parent="1">
          <mxGeometry x="10" y="10" width="1000" height="350" as="geometry" />
        </mxCell>
        <mxCell id="fL6lvS7GN7arQnfJmLDX-32" value="" style="shape=tableRow;horizontal=0;startSize=0;swimlaneHead=0;swimlaneBody=0;strokeColor=inherit;top=0;left=0;bottom=0;right=0;collapsible=0;dropTarget=0;fillColor=none;points=[[0,0.5],[1,0.5]];portConstraint=eastwest;fontSize=16;" vertex="1" parent="fL6lvS7GN7arQnfJmLDX-31">
          <mxGeometry width="1000" height="117" as="geometry" />
        </mxCell>
        <mxCell id="fL6lvS7GN7arQnfJmLDX-33" value="" style="shape=partialRectangle;html=1;whiteSpace=wrap;connectable=0;strokeColor=inherit;overflow=hidden;fillColor=none;top=0;left=0;bottom=0;right=0;pointerEvents=1;fontSize=16;" vertex="1" parent="fL6lvS7GN7arQnfJmLDX-32">
          <mxGeometry width="160" height="117" as="geometry">
            <mxRectangle width="160" height="117" as="alternateBounds" />
          </mxGeometry>
        </mxCell>
        <mxCell id="fL6lvS7GN7arQnfJmLDX-34" value="" style="shape=partialRectangle;html=1;whiteSpace=wrap;connectable=0;strokeColor=inherit;overflow=hidden;fillColor=none;top=0;left=0;bottom=0;right=0;pointerEvents=1;fontSize=16;" vertex="1" parent="fL6lvS7GN7arQnfJmLDX-32">
          <mxGeometry x="160" width="170" height="117" as="geometry">
            <mxRectangle width="170" height="117" as="alternateBounds" />
          </mxGeometry>
        </mxCell>
        <mxCell id="fL6lvS7GN7arQnfJmLDX-35" value="" style="shape=partialRectangle;html=1;whiteSpace=wrap;connectable=0;strokeColor=inherit;overflow=hidden;fillColor=none;top=0;left=0;bottom=0;right=0;pointerEvents=1;fontSize=16;" vertex="1" parent="fL6lvS7GN7arQnfJmLDX-32">
          <mxGeometry x="330" width="170" height="117" as="geometry">
            <mxRectangle width="170" height="117" as="alternateBounds" />
          </mxGeometry>
        </mxCell>
        <mxCell id="fL6lvS7GN7arQnfJmLDX-44" style="shape=partialRectangle;html=1;whiteSpace=wrap;connectable=0;strokeColor=inherit;overflow=hidden;fillColor=none;top=0;left=0;bottom=0;right=0;pointerEvents=1;fontSize=16;" vertex="1" parent="fL6lvS7GN7arQnfJmLDX-32">
          <mxGeometry x="500" width="160" height="117" as="geometry">
            <mxRectangle width="160" height="117" as="alternateBounds" />
          </mxGeometry>
        </mxCell>
        <mxCell id="fL6lvS7GN7arQnfJmLDX-47" style="shape=partialRectangle;html=1;whiteSpace=wrap;connectable=0;strokeColor=inherit;overflow=hidden;fillColor=none;top=0;left=0;bottom=0;right=0;pointerEvents=1;fontSize=16;" vertex="1" parent="fL6lvS7GN7arQnfJmLDX-32">
          <mxGeometry x="660" width="170" height="117" as="geometry">
            <mxRectangle width="170" height="117" as="alternateBounds" />
          </mxGeometry>
        </mxCell>
        <mxCell id="fL6lvS7GN7arQnfJmLDX-50" style="shape=partialRectangle;html=1;whiteSpace=wrap;connectable=0;strokeColor=inherit;overflow=hidden;fillColor=none;top=0;left=0;bottom=0;right=0;pointerEvents=1;fontSize=16;" vertex="1" parent="fL6lvS7GN7arQnfJmLDX-32">
          <mxGeometry x="830" width="170" height="117" as="geometry">
            <mxRectangle width="170" height="117" as="alternateBounds" />
          </mxGeometry>
        </mxCell>
        <mxCell id="fL6lvS7GN7arQnfJmLDX-36" value="" style="shape=tableRow;horizontal=0;startSize=0;swimlaneHead=0;swimlaneBody=0;strokeColor=inherit;top=0;left=0;bottom=0;right=0;collapsible=0;dropTarget=0;fillColor=none;points=[[0,0.5],[1,0.5]];portConstraint=eastwest;fontSize=16;" vertex="1" parent="fL6lvS7GN7arQnfJmLDX-31">
          <mxGeometry y="117" width="1000" height="116" as="geometry" />
        </mxCell>
        <mxCell id="fL6lvS7GN7arQnfJmLDX-37" value="" style="shape=partialRectangle;html=1;whiteSpace=wrap;connectable=0;strokeColor=inherit;overflow=hidden;fillColor=none;top=0;left=0;bottom=0;right=0;pointerEvents=1;fontSize=16;" vertex="1" parent="fL6lvS7GN7arQnfJmLDX-36">
          <mxGeometry width="160" height="116" as="geometry">
            <mxRectangle width="160" height="116" as="alternateBounds" />
          </mxGeometry>
        </mxCell>
        <mxCell id="fL6lvS7GN7arQnfJmLDX-38" value="" style="shape=partialRectangle;html=1;whiteSpace=wrap;connectable=0;strokeColor=inherit;overflow=hidden;fillColor=none;top=0;left=0;bottom=0;right=0;pointerEvents=1;fontSize=16;" vertex="1" parent="fL6lvS7GN7arQnfJmLDX-36">
          <mxGeometry x="160" width="170" height="116" as="geometry">
            <mxRectangle width="170" height="116" as="alternateBounds" />
          </mxGeometry>
        </mxCell>
        <mxCell id="fL6lvS7GN7arQnfJmLDX-39" value="" style="shape=partialRectangle;html=1;whiteSpace=wrap;connectable=0;strokeColor=inherit;overflow=hidden;fillColor=none;top=0;left=0;bottom=0;right=0;pointerEvents=1;fontSize=16;" vertex="1" parent="fL6lvS7GN7arQnfJmLDX-36">
          <mxGeometry x="330" width="170" height="116" as="geometry">
            <mxRectangle width="170" height="116" as="alternateBounds" />
          </mxGeometry>
        </mxCell>
        <mxCell id="fL6lvS7GN7arQnfJmLDX-45" style="shape=partialRectangle;html=1;whiteSpace=wrap;connectable=0;strokeColor=inherit;overflow=hidden;fillColor=none;top=0;left=0;bottom=0;right=0;pointerEvents=1;fontSize=16;" vertex="1" parent="fL6lvS7GN7arQnfJmLDX-36">
          <mxGeometry x="500" width="160" height="116" as="geometry">
            <mxRectangle width="160" height="116" as="alternateBounds" />
          </mxGeometry>
        </mxCell>
        <mxCell id="fL6lvS7GN7arQnfJmLDX-48" style="shape=partialRectangle;html=1;whiteSpace=wrap;connectable=0;strokeColor=inherit;overflow=hidden;fillColor=none;top=0;left=0;bottom=0;right=0;pointerEvents=1;fontSize=16;" vertex="1" parent="fL6lvS7GN7arQnfJmLDX-36">
          <mxGeometry x="660" width="170" height="116" as="geometry">
            <mxRectangle width="170" height="116" as="alternateBounds" />
          </mxGeometry>
        </mxCell>
        <mxCell id="fL6lvS7GN7arQnfJmLDX-51" style="shape=partialRectangle;html=1;whiteSpace=wrap;connectable=0;strokeColor=inherit;overflow=hidden;fillColor=none;top=0;left=0;bottom=0;right=0;pointerEvents=1;fontSize=16;" vertex="1" parent="fL6lvS7GN7arQnfJmLDX-36">
          <mxGeometry x="830" width="170" height="116" as="geometry">
            <mxRectangle width="170" height="116" as="alternateBounds" />
          </mxGeometry>
        </mxCell>
        <mxCell id="fL6lvS7GN7arQnfJmLDX-40" value="" style="shape=tableRow;horizontal=0;startSize=0;swimlaneHead=0;swimlaneBody=0;strokeColor=inherit;top=0;left=0;bottom=0;right=0;collapsible=0;dropTarget=0;fillColor=none;points=[[0,0.5],[1,0.5]];portConstraint=eastwest;fontSize=16;" vertex="1" parent="fL6lvS7GN7arQnfJmLDX-31">
          <mxGeometry y="233" width="1000" height="117" as="geometry" />
        </mxCell>
        <mxCell id="fL6lvS7GN7arQnfJmLDX-41" value="" style="shape=partialRectangle;html=1;whiteSpace=wrap;connectable=0;strokeColor=inherit;overflow=hidden;fillColor=none;top=0;left=0;bottom=0;right=0;pointerEvents=1;fontSize=16;" vertex="1" parent="fL6lvS7GN7arQnfJmLDX-40">
          <mxGeometry width="160" height="117" as="geometry">
            <mxRectangle width="160" height="117" as="alternateBounds" />
          </mxGeometry>
        </mxCell>
        <mxCell id="fL6lvS7GN7arQnfJmLDX-42" value="" style="shape=partialRectangle;html=1;whiteSpace=wrap;connectable=0;strokeColor=inherit;overflow=hidden;fillColor=none;top=0;left=0;bottom=0;right=0;pointerEvents=1;fontSize=16;" vertex="1" parent="fL6lvS7GN7arQnfJmLDX-40">
          <mxGeometry x="160" width="170" height="117" as="geometry">
            <mxRectangle width="170" height="117" as="alternateBounds" />
          </mxGeometry>
        </mxCell>
        <mxCell id="fL6lvS7GN7arQnfJmLDX-43" value="" style="shape=partialRectangle;html=1;whiteSpace=wrap;connectable=0;strokeColor=inherit;overflow=hidden;fillColor=none;top=0;left=0;bottom=0;right=0;pointerEvents=1;fontSize=16;" vertex="1" parent="fL6lvS7GN7arQnfJmLDX-40">
          <mxGeometry x="330" width="170" height="117" as="geometry">
            <mxRectangle width="170" height="117" as="alternateBounds" />
          </mxGeometry>
        </mxCell>
        <mxCell id="fL6lvS7GN7arQnfJmLDX-46" style="shape=partialRectangle;html=1;whiteSpace=wrap;connectable=0;strokeColor=inherit;overflow=hidden;fillColor=none;top=0;left=0;bottom=0;right=0;pointerEvents=1;fontSize=16;" vertex="1" parent="fL6lvS7GN7arQnfJmLDX-40">
          <mxGeometry x="500" width="160" height="117" as="geometry">
            <mxRectangle width="160" height="117" as="alternateBounds" />
          </mxGeometry>
        </mxCell>
        <mxCell id="fL6lvS7GN7arQnfJmLDX-49" style="shape=partialRectangle;html=1;whiteSpace=wrap;connectable=0;strokeColor=inherit;overflow=hidden;fillColor=none;top=0;left=0;bottom=0;right=0;pointerEvents=1;fontSize=16;" vertex="1" parent="fL6lvS7GN7arQnfJmLDX-40">
          <mxGeometry x="660" width="170" height="117" as="geometry">
            <mxRectangle width="170" height="117" as="alternateBounds" />
          </mxGeometry>
        </mxCell>
        <mxCell id="fL6lvS7GN7arQnfJmLDX-52" style="shape=partialRectangle;html=1;whiteSpace=wrap;connectable=0;strokeColor=inherit;overflow=hidden;fillColor=none;top=0;left=0;bottom=0;right=0;pointerEvents=1;fontSize=16;" vertex="1" parent="fL6lvS7GN7arQnfJmLDX-40">
          <mxGeometry x="830" width="170" height="117" as="geometry">
            <mxRectangle width="170" height="117" as="alternateBounds" />
          </mxGeometry>
        </mxCell>
        <mxCell id="fL6lvS7GN7arQnfJmLDX-4" value="CLI" style="edgeStyle=orthogonalEdgeStyle;rounded=0;orthogonalLoop=1;jettySize=auto;html=1;" edge="1" parent="1" source="fL6lvS7GN7arQnfJmLDX-1" target="fL6lvS7GN7arQnfJmLDX-3">
          <mxGeometry relative="1" as="geometry" />
        </mxCell>
        <mxCell id="fL6lvS7GN7arQnfJmLDX-1" value="CROC" style="rounded=1;whiteSpace=wrap;html=1;" vertex="1" parent="1">
          <mxGeometry x="30" y="20" width="120" height="50" as="geometry" />
        </mxCell>
        <mxCell id="fL6lvS7GN7arQnfJmLDX-6" value="API" style="edgeStyle=orthogonalEdgeStyle;rounded=0;orthogonalLoop=1;jettySize=auto;html=1;" edge="1" parent="1" source="fL6lvS7GN7arQnfJmLDX-2" target="fL6lvS7GN7arQnfJmLDX-5">
          <mxGeometry relative="1" as="geometry" />
        </mxCell>
        <mxCell id="fL6lvS7GN7arQnfJmLDX-13" value="" style="edgeStyle=orthogonalEdgeStyle;rounded=0;orthogonalLoop=1;jettySize=auto;html=1;" edge="1" parent="1" source="fL6lvS7GN7arQnfJmLDX-2" target="fL6lvS7GN7arQnfJmLDX-12">
          <mxGeometry relative="1" as="geometry">
            <Array as="points">
              <mxPoint x="100" y="230" />
              <mxPoint x="300" y="230" />
            </Array>
          </mxGeometry>
        </mxCell>
        <mxCell id="fL6lvS7GN7arQnfJmLDX-2" value="Cloud" style="rounded=1;whiteSpace=wrap;html=1;" vertex="1" parent="1">
          <mxGeometry x="30" y="155" width="120" height="50" as="geometry" />
        </mxCell>
        <mxCell id="fL6lvS7GN7arQnfJmLDX-11" value="" style="edgeStyle=orthogonalEdgeStyle;rounded=0;orthogonalLoop=1;jettySize=auto;html=1;" edge="1" parent="1" source="fL6lvS7GN7arQnfJmLDX-3" target="fL6lvS7GN7arQnfJmLDX-10">
          <mxGeometry relative="1" as="geometry" />
        </mxCell>
        <mxCell id="fL6lvS7GN7arQnfJmLDX-3" value="Local files" style="whiteSpace=wrap;html=1;rounded=1;" vertex="1" parent="1">
          <mxGeometry x="200" y="15" width="120" height="60" as="geometry" />
        </mxCell>
        <mxCell id="fL6lvS7GN7arQnfJmLDX-19" style="edgeStyle=orthogonalEdgeStyle;rounded=0;orthogonalLoop=1;jettySize=auto;html=1;entryX=0.5;entryY=1;entryDx=0;entryDy=0;" edge="1" parent="1" source="fL6lvS7GN7arQnfJmLDX-5" target="fL6lvS7GN7arQnfJmLDX-10">
          <mxGeometry relative="1" as="geometry" />
        </mxCell>
        <mxCell id="fL6lvS7GN7arQnfJmLDX-20" value="Text" style="edgeLabel;html=1;align=center;verticalAlign=middle;resizable=0;points=[];" vertex="1" connectable="0" parent="fL6lvS7GN7arQnfJmLDX-19">
          <mxGeometry x="-0.8791" y="4" relative="1" as="geometry">
            <mxPoint as="offset" />
          </mxGeometry>
        </mxCell>
        <mxCell id="fL6lvS7GN7arQnfJmLDX-5" value="Local files" style="whiteSpace=wrap;html=1;rounded=1;" vertex="1" parent="1">
          <mxGeometry x="200" y="150" width="120" height="60" as="geometry" />
        </mxCell>
        <mxCell id="fL6lvS7GN7arQnfJmLDX-16" value="" style="edgeStyle=orthogonalEdgeStyle;rounded=0;orthogonalLoop=1;jettySize=auto;html=1;" edge="1" parent="1" source="fL6lvS7GN7arQnfJmLDX-10" target="fL6lvS7GN7arQnfJmLDX-15">
          <mxGeometry relative="1" as="geometry" />
        </mxCell>
        <mxCell id="fL6lvS7GN7arQnfJmLDX-10" value="S3 (.csv)" style="whiteSpace=wrap;html=1;rounded=1;" vertex="1" parent="1">
          <mxGeometry x="370" y="15" width="120" height="60" as="geometry" />
        </mxCell>
        <mxCell id="fL6lvS7GN7arQnfJmLDX-12" value="PostgreSQL" style="whiteSpace=wrap;html=1;rounded=1;" vertex="1" parent="1">
          <mxGeometry x="240" y="300" width="120" height="60" as="geometry" />
        </mxCell>
        <mxCell id="fL6lvS7GN7arQnfJmLDX-18" value="" style="edgeStyle=orthogonalEdgeStyle;rounded=0;orthogonalLoop=1;jettySize=auto;html=1;" edge="1" parent="1" source="fL6lvS7GN7arQnfJmLDX-15" target="fL6lvS7GN7arQnfJmLDX-17">
          <mxGeometry relative="1" as="geometry" />
        </mxCell>
        <mxCell id="fL6lvS7GN7arQnfJmLDX-15" value="Yandex Query" style="whiteSpace=wrap;html=1;rounded=1;" vertex="1" parent="1">
          <mxGeometry x="530" y="15" width="120" height="60" as="geometry" />
        </mxCell>
        <mxCell id="fL6lvS7GN7arQnfJmLDX-17" value="Yandex DataLens" style="whiteSpace=wrap;html=1;rounded=1;" vertex="1" parent="1">
          <mxGeometry x="690" y="15" width="120" height="60" as="geometry" />
        </mxCell>
        <mxCell id="fL6lvS7GN7arQnfJmLDX-21" value="Table" style="shape=table;startSize=30;container=1;collapsible=0;childLayout=tableLayout;fixedRows=1;rowLines=0;fontStyle=0;strokeColor=default;fontSize=16;" vertex="1" parent="1">
          <mxGeometry x="350" y="160" width="180" height="120" as="geometry" />
        </mxCell>
        <mxCell id="fL6lvS7GN7arQnfJmLDX-22" value="" style="shape=tableRow;horizontal=0;startSize=0;swimlaneHead=0;swimlaneBody=0;top=0;left=0;bottom=0;right=0;collapsible=0;dropTarget=0;fillColor=none;points=[[0,0.5],[1,0.5]];portConstraint=eastwest;strokeColor=inherit;fontSize=16;" vertex="1" parent="fL6lvS7GN7arQnfJmLDX-21">
          <mxGeometry y="30" width="180" height="30" as="geometry" />
        </mxCell>
        <mxCell id="fL6lvS7GN7arQnfJmLDX-23" value="1" style="shape=partialRectangle;html=1;whiteSpace=wrap;connectable=0;fillColor=none;top=0;left=0;bottom=0;right=0;overflow=hidden;pointerEvents=1;strokeColor=inherit;fontSize=16;" vertex="1" parent="fL6lvS7GN7arQnfJmLDX-22">
          <mxGeometry width="40" height="30" as="geometry">
            <mxRectangle width="40" height="30" as="alternateBounds" />
          </mxGeometry>
        </mxCell>
        <mxCell id="fL6lvS7GN7arQnfJmLDX-24" value="Value 1" style="shape=partialRectangle;html=1;whiteSpace=wrap;connectable=0;fillColor=none;top=0;left=0;bottom=0;right=0;align=left;spacingLeft=6;overflow=hidden;strokeColor=inherit;fontSize=16;" vertex="1" parent="fL6lvS7GN7arQnfJmLDX-22">
          <mxGeometry x="40" width="140" height="30" as="geometry">
            <mxRectangle width="140" height="30" as="alternateBounds" />
          </mxGeometry>
        </mxCell>
        <mxCell id="fL6lvS7GN7arQnfJmLDX-25" value="" style="shape=tableRow;horizontal=0;startSize=0;swimlaneHead=0;swimlaneBody=0;top=0;left=0;bottom=0;right=0;collapsible=0;dropTarget=0;fillColor=none;points=[[0,0.5],[1,0.5]];portConstraint=eastwest;strokeColor=inherit;fontSize=16;" vertex="1" parent="fL6lvS7GN7arQnfJmLDX-21">
          <mxGeometry y="60" width="180" height="30" as="geometry" />
        </mxCell>
        <mxCell id="fL6lvS7GN7arQnfJmLDX-26" value="2" style="shape=partialRectangle;html=1;whiteSpace=wrap;connectable=0;fillColor=none;top=0;left=0;bottom=0;right=0;overflow=hidden;strokeColor=inherit;fontSize=16;" vertex="1" parent="fL6lvS7GN7arQnfJmLDX-25">
          <mxGeometry width="40" height="30" as="geometry">
            <mxRectangle width="40" height="30" as="alternateBounds" />
          </mxGeometry>
        </mxCell>
        <mxCell id="fL6lvS7GN7arQnfJmLDX-27" value="Value 2" style="shape=partialRectangle;html=1;whiteSpace=wrap;connectable=0;fillColor=none;top=0;left=0;bottom=0;right=0;align=left;spacingLeft=6;overflow=hidden;strokeColor=inherit;fontSize=16;" vertex="1" parent="fL6lvS7GN7arQnfJmLDX-25">
          <mxGeometry x="40" width="140" height="30" as="geometry">
            <mxRectangle width="140" height="30" as="alternateBounds" />
          </mxGeometry>
        </mxCell>
        <mxCell id="fL6lvS7GN7arQnfJmLDX-28" value="" style="shape=tableRow;horizontal=0;startSize=0;swimlaneHead=0;swimlaneBody=0;top=0;left=0;bottom=0;right=0;collapsible=0;dropTarget=0;fillColor=none;points=[[0,0.5],[1,0.5]];portConstraint=eastwest;strokeColor=inherit;fontSize=16;" vertex="1" parent="fL6lvS7GN7arQnfJmLDX-21">
          <mxGeometry y="90" width="180" height="30" as="geometry" />
        </mxCell>
        <mxCell id="fL6lvS7GN7arQnfJmLDX-29" value="3" style="shape=partialRectangle;html=1;whiteSpace=wrap;connectable=0;fillColor=none;top=0;left=0;bottom=0;right=0;overflow=hidden;strokeColor=inherit;fontSize=16;" vertex="1" parent="fL6lvS7GN7arQnfJmLDX-28">
          <mxGeometry width="40" height="30" as="geometry">
            <mxRectangle width="40" height="30" as="alternateBounds" />
          </mxGeometry>
        </mxCell>
        <mxCell id="fL6lvS7GN7arQnfJmLDX-30" value="Value 3" style="shape=partialRectangle;html=1;whiteSpace=wrap;connectable=0;fillColor=none;top=0;left=0;bottom=0;right=0;align=left;spacingLeft=6;overflow=hidden;strokeColor=inherit;fontSize=16;" vertex="1" parent="fL6lvS7GN7arQnfJmLDX-28">
          <mxGeometry x="40" width="140" height="30" as="geometry">
            <mxRectangle width="140" height="30" as="alternateBounds" />
          </mxGeometry>
        </mxCell>
      </root>
    </mxGraphModel>
  </diagram>
</mxfile>
